<?xml version="1.0" encoding="UTF-8"?>
<svg width="61px" height="61px" viewBox="0 0 61 61" version="1.1" xmlns="http://www.w3.org/2000/svg" xmlns:xlink="http://www.w3.org/1999/xlink">
    <title>shang</title>
    <g id="Page-2" stroke="none" stroke-width="1" fill="none" fill-rule="evenodd">
        <g id="手机750*1334适配登录-2" transform="translate(-188.000000, -5773.000000)">
            <g id="底部导航-2" transform="translate(0.972656, 5768.068000)">
                <g id="编组-20" transform="translate(30.000000, 5.000000)">
                    <g id="shang" transform="translate(157.500000, 0.000000)">
                        <rect id="矩形" fill="#D8D8D8" opacity="0" x="0" y="0" width="60" height="60"></rect>
                        <path d="M53,35.3076917 C53,33.3526917 51.4165381,31.76923 49.4615376,31.76923 C45.5338452,31.76923 39.235384,31.76923 35.3076917,31.76923 C33.3526917,31.76923 31.76923,33.3526917 31.76923,35.3076917 C31.76923,39.235384 31.76923,45.5338452 31.76923,49.4615376 C31.76923,51.4165381 33.3526917,53 35.3076917,53 C39.235384,53 45.5338452,53 49.4615376,53 C51.4165381,53 53,51.4165381 53,49.4615376 C53,45.5338452 53,39.235384 53,35.3076917 Z M28.23077,35.3076917 C28.23077,33.3526917 26.6473081,31.76923 24.6923076,31.76923 C20.7646152,31.76923 14.466154,31.76923 10.5384617,31.76923 C8.58346174,31.76923 7,33.3526917 7,35.3076917 C7,39.235384 7,45.5338452 7,49.4615376 C7,51.4165381 8.58346174,53 10.5384617,53 C14.466154,53 20.7646152,53 24.6923076,53 C26.6473081,53 28.23077,51.4165381 28.23077,49.4615376 C28.23077,45.5338452 28.23077,39.235384 28.23077,35.3076917 Z M28.23077,10.5384617 C28.23077,8.58346174 26.6473081,7 24.6923076,7 C20.7646152,7 14.466154,7 10.5384617,7 C8.58346174,7 7,8.58346174 7,10.5384617 C7,14.466154 7,20.7646152 7,24.6923076 C7,26.6473081 8.58346174,28.23077 10.5384617,28.23077 C14.466154,28.23077 20.7646152,28.23077 24.6923076,28.23077 C26.6473081,28.23077 28.23077,26.6473081 28.23077,24.6923076 C28.23077,20.7646152 28.23077,14.466154 28.23077,10.5384617 Z M53,10.5384617 C53,8.58346174 51.4165381,7 49.4615376,7 C45.5338452,7 39.235384,7 35.3076917,7 C33.3526917,7 31.76923,8.58346174 31.76923,10.5384617 C31.76923,14.466154 31.76923,20.7646152 31.76923,24.6923076 C31.76923,26.6473081 33.3526917,28.23077 35.3076917,28.23077 C39.235384,28.23077 45.5338452,28.23077 49.4615376,28.23077 C51.4165381,28.23077 53,26.6473081 53,24.6923076 C53,20.7646152 53,14.466154 53,10.5384617 Z" id="形状" fill="#DDDEDE" fill-rule="nonzero"></path>
                    </g>
                </g>
            </g>
        </g>
    </g>
</svg>