<?xml version="1.0" encoding="UTF-8"?>
<svg width="61px" height="61px" viewBox="0 0 61 61" version="1.1" xmlns="http://www.w3.org/2000/svg" xmlns:xlink="http://www.w3.org/1999/xlink">
    <title>shouye</title>
    <g id="Page-2" stroke="none" stroke-width="1" fill="none" fill-rule="evenodd">
        <g id="手机750*1334适配登录-2" transform="translate(-30.000000, -5773.000000)">
            <g id="底部导航-2" transform="translate(0.972656, 5768.068000)">
                <g id="shouye" transform="translate(30.000000, 5.000000)">
                    <rect id="矩形" fill="#D8D8D8" opacity="0" x="0" y="0" width="60" height="60"></rect>
                    <path d="M46.0923109,54.7365244 C46.0109825,54.736816 45.9296622,54.7348639 45.848426,54.7307113 L14.6273895,54.7307113 C12.536182,54.7307113 11.3322666,53.7730394 10.6909987,52.9699873 C9.2846481,51.2101354 9.39776585,48.8239456 9.46087647,48.1618559 L9.46087647,27.7528014 L12.8035995,27.7528014 L12.8035995,48.4106485 L12.7880897,48.5176052 C12.7482442,48.8809102 12.7445005,50.0091924 13.2210389,50.5957126 C13.3218556,50.7198192 13.6285836,51.0973645 14.6276568,51.0973645 L45.9818681,51.0973645 L46.0209091,51.1020166 C46.1332235,51.1063758 47.1865832,51.1267216 47.8487103,50.4460311 C48.2902177,49.9923355 48.5143148,49.2418921 48.5143148,48.2156267 L48.5143148,27.736816 L51.857037,27.736816 L51.857037,48.2156267 C51.857037,50.8197999 50.9039598,52.3238854 50.1043807,53.127518 C48.6662078,54.5728917 46.8445567,54.736816 46.0923109,54.736816 L46.0923109,54.7365244 Z M9.934896,30.263159 L4.70195375,30.263159 C3.99495637,30.263159 3.36168334,29.8332045 3.11083608,29.1834783 C2.85998883,28.5337503 3.04377812,27.7992482 3.57261227,27.3380174 L28.695421,5.42180722 C29.3349657,4.86391369 30.2962818,4.85887225 30.941848,5.41002635 L56.4138646,27.1535387 C56.9434458,27.605678 57.1366848,28.3308103 56.9006238,28.9800861 C56.6645574,29.6293644 56.0475242,30.0698592 55.346358,30.0896592 L49.7633898,30.2473619 C48.823523,30.2739034 48.0397233,29.5465063 48.0127206,28.6226695 C47.9857152,27.6988332 48.7257339,26.9283993 49.665599,26.9018553 L50.8859186,26.8673155 L29.837838,8.90011588 L9.18554318,26.9160466 L9.93462438,26.9160466 C10.8748643,26.9160466 11.6370808,27.6652625 11.6370808,28.5894697 C11.6370808,29.5136743 10.8748643,30.2628912 9.93462438,30.2628912 L9.934896,30.263159 Z M21.5670365,53.6988204 C21.2039728,53.3710987 21,52.9265728 21,52.4630559 L21,35.3713478 C21,35.0561868 21.08883,33.7594211 22.4352292,32.5236329 C24.0701427,31.0237194 26.8414934,29 30.6729316,29 C34.4467391,29 37.1883578,31.0339927 38.8210691,32.5544527 C40.1994037,33.8379627 40.2882318,35.1890777 40.285715,35.5476521 L40.285715,52.4070507 C40.285715,53.372242 39.4190105,54.1546854 38.3499403,54.1546854 C37.2808687,54.1546854 36.4142157,53.372242 36.4142157,52.4070507 L36.4142157,35.5681992 C36.4013676,35.492971 36.3202461,35.1731704 35.8393901,34.8212247 C35.2968658,34.424208 33.9038482,32.4952688 30.6729316,32.4952688 C26.925184,32.4952688 25.5938347,34.609129 25.1952008,34.9746627 C24.9995545,35.1542809 24.9173316,35.3073875 24.8828273,35.4038248 C24.8786853,35.4155217 24.8750124,35.427349 24.8718156,35.4392847 L24.8718156,52.4630559 C24.8718156,52.9265728 24.6678427,53.3710987 24.3047789,53.6988204 C23.9417153,54.0265446 23.4493086,54.210526 22.9359078,54.210526 C22.4225068,54.210526 21.9301002,54.0265446 21.5670365,53.6988204 Z M23.9970788,35.2910453 L23.49451,51.736843 L10.2058639,51.0178313 L9.25675678,36.9689428 L9.5357713,27.7877466 L5.5715332,26.5156721 L29.5250564,5 L53.1429632,25.4092629 L50.7421782,27.67702 L49.7370405,48.141789 L48.787932,51.294505 L36.2808702,51.736843 L36.0576032,38.4431977 L35.2757335,32.9119937 L33.7122794,31.6399192 L30.6414009,31.1420783 L26.8449724,31.4739725 L24.4996486,31.8058696 L23.9970788,35.2910453 Z" id="形状" fill="#5781ED" fill-rule="nonzero"></path>
                </g>
            </g>
        </g>
    </g>
</svg>