<?xml version="1.0" encoding="UTF-8"?>
<svg width="60px" height="60px" viewBox="0 0 60 60" version="1.1" xmlns="http://www.w3.org/2000/svg" xmlns:xlink="http://www.w3.org/1999/xlink">
    <title>gou</title>
    <defs>
        <rect id="path-1" x="0" y="0" width="50" height="50"></rect>
    </defs>
    <g id="Page-2" stroke="none" stroke-width="1" fill="none" fill-rule="evenodd">
        <g id="画板" transform="translate(-451.000000, -213.000000)">
            <g id="gou" transform="translate(451.000000, 213.000000)">
                <rect id="矩形" fill="#D8D8D8" opacity="0" x="0" y="0" width="60" height="60"></rect>
                <g id="svg" transform="translate(5.000000, 5.000000)">
                    <mask id="mask-2" fill="white">
                        <use xlink:href="#path-1"></use>
                    </mask>
                    <g id="Background"></g>
                    <path d="M40.2641813,0 C42.2606096,0 43.8570372,1.62857132 43.8873938,3.59642821 L43.8873938,24.9607125 L28.3838249,24.9107126 C26.0341619,24.9036521 24.1169248,26.7898178 24.0856085,29.1392871 L23.8356096,48.076786 L6.27132372,48.076786 C4.30703836,48.076786 2.6784668,46.4785723 2.6784668,44.4821405 L2.6784668,3.59642821 C2.6784668,1.62857132 4.27489548,0 6.27132372,0 L40.2641813,0 L40.2641813,0 Z M34.9515834,19.9893398 C34.9515834,18.958983 34.1480107,18.083984 33.1908679,18.083984 L11.3390836,18.083984 C10.381941,18.083984 9.5783691,18.9268412 9.5783691,19.9893414 C9.5783691,21.0196984 10.3819403,21.8946987 11.3390836,21.8946987 L33.1926555,21.8946987 C34.1801552,21.8946987 34.9533711,21.0518415 34.9533711,19.9893414 L34.9515834,19.9893398 Z M11.3033623,25.301758 C10.348005,25.301758 9.5444338,26.1446152 9.5444338,27.2071154 C9.5444338,28.2392591 10.348005,29.114258 11.3033623,29.114258 L19.9158638,29.114258 C20.8730071,29.114258 21.6765768,28.2696154 21.6765768,27.2071154 C21.6765768,26.1767599 20.8730055,25.301758 19.9158638,25.301758 L11.3051476,25.301758 L11.3033623,25.301758 Z M11.3355118,14.114258 L33.1890844,14.114258 C34.1462285,14.114258 34.9498001,13.2714008 34.9498001,12.2089009 C34.9498001,11.1767579 34.1462285,10.301758 33.1890844,10.301758 L11.3390837,10.301758 C10.3819411,10.301758 9.5783691,11.1464012 9.5783691,12.2089009 C9.5783691,13.2714008 10.3819404,14.114258 11.3390837,14.114258 L11.3355118,14.114258 Z M44.9517837,43.7732235 L46.6071405,45.4285819 C47.0632107,45.8624116 47.3214238,46.4643109 47.3214238,47.09376 C47.3214238,47.7232081 47.0632107,48.3251077 46.6071405,48.7589369 C46.1733638,49.2144358 45.5718527,49.472242 44.9428544,49.472242 C44.3138552,49.472242 43.7123433,49.2144358 43.2785666,48.7589369 L41.323213,46.8035805 C39.7315102,47.641449 37.9594784,48.0784821 36.1607163,48.0767959 C30.0214282,48.0767959 24.9999998,43.0553665 24.9999998,36.9160832 C24.9999998,30.7785846 30.0232135,25.755371 36.1607118,25.755371 C42.2999963,25.755371 47.3214238,30.7785846 47.3214238,36.9160832 C47.3214238,39.4067702 46.4860333,41.8213597 44.9493082,43.7763722 L44.9517837,43.7732235 Z M36.094643,29.8768047 C34.2395113,29.8589651 32.4551926,30.5881624 31.1435238,31.9001679 C29.8318553,33.2121736 29.10312,34.9966773 29.1214306,36.8518064 C29.1031081,38.7072329 29.8320847,40.4920173 31.1441409,41.8040796 C32.4561968,43.1161416 34.2409806,43.8451246 36.0964192,43.8268082 C37.9518607,43.8451302 39.7366471,43.116151 41.0487066,41.8040913 C42.3607682,40.4920327 43.0897488,38.7072482 43.0714316,36.8518033 C43.089753,34.9963764 42.3607773,33.2115925 41.048722,31.8995301 C39.7366653,30.587471 37.9518844,29.8584882 36.0964434,29.8768018 L36.094643,29.8768047 Z" id="Shape" fill="#DADBDC" mask="url(#mask-2)"></path>
                </g>
            </g>
        </g>
    </g>
</svg>