<?xml version="1.0" encoding="UTF-8"?>
<svg width="61px" height="61px" viewBox="0 0 61 61" version="1.1" xmlns="http://www.w3.org/2000/svg" xmlns:xlink="http://www.w3.org/1999/xlink">
    <title>wode</title>
    <g id="Page-2" stroke="none" stroke-width="1" fill="none" fill-rule="evenodd">
        <g id="手机750*1334适配登录-2" transform="translate(-660.000000, -5773.000000)">
            <g id="底部导航-2" transform="translate(0.972656, 5768.068000)">
                <g id="编组-20" transform="translate(30.000000, 5.000000)">
                    <g id="wode" transform="translate(630.000000, 0.000000)">
                        <rect id="矩形" fill="#D8D8D8" opacity="0" x="0" y="0" width="60" height="60"></rect>
                        <path stroke-width="60" d="M30.0046364,57 C22.5180854,57 15.3140461,54.9015546 9.09879626,50.9844572 C6.55619424,49.4455944 5.28489314,45.6683916 6.41493854,43.1502582 C9.09879626,36.854922 14.8902789,32.0984454 22.2355746,30 C17.9979034,27.4818666 15.1727902,22.8652846 15.1727902,17.5492222 C15.1727902,9.57512964 21.6705519,3 29.8633805,3 C37.7736983,3 44.4127144,9.57512964 44.4127144,17.5492222 C44.4127144,22.5854922 41.7288567,27.0621764 37.7736983,29.7202076 C45.2602513,31.5388596 51.1929859,36.2953362 54.1593555,42.5906724 C55.2894007,45.1088058 54.1593555,48.8860086 51.75801,50.5647682 C45.2602513,54.7616568 37.7736983,57 30.0046364,57" id="路径" fill="#DDDEDE" fill-rule="nonzero"></path>
                    </g>
                </g>
            </g>
        </g>
    </g>
</svg>