<?xml version="1.0" encoding="UTF-8"?>
<svg width="61px" height="61px" viewBox="0 0 61 61" version="1.1" xmlns="http://www.w3.org/2000/svg" xmlns:xlink="http://www.w3.org/1999/xlink">
    <title>zhongzhi</title>
    <g id="Page-2" stroke="none" stroke-width="1" fill="none" fill-rule="evenodd">
        <g id="手机750*1334适配登录-2" transform="translate(-345.000000, -5773.000000)">
            <g id="底部导航-2" transform="translate(0.972656, 5768.068000)">
                <g id="编组-20" transform="translate(30.000000, 5.000000)">
                    <g id="zhongzhi" transform="translate(315.000000, 0.000000)">
                        <rect id="矩形" fill="#D8D8D8" opacity="0" x="0" y="0" width="60" height="60"></rect>
                        <path d="M30,7 C17.2952384,7 7,17.2952384 7,30 C7,36.352382 9.62857142,42.157144 13.7904763,46.3190474 C15.8714289,48.4 7,53 7,53 L30,53 C42.7047612,53 53,42.7047612 53,30 C53,17.2952384 42.7047612,7 30,7 Z M21.2380952,23.428572 L33.2857137,23.428572 C34.1619044,23.428572 34.928571,24.1952387 34.928571,25.0714292 C34.928571,25.9476197 34.1619044,26.7142864 33.2857137,26.7142864 L21.2380952,26.7142864 C20.3619046,26.7142864 19.595238,25.9476197 19.595238,25.0714292 C19.595238,24.1952386 20.3619046,23.428572 21.2380952,23.428572 Z M39.8571429,36.5714294 L21.2380951,36.5714294 C20.3619047,36.5714294 19.595238,35.8047627 19.595238,34.9285722 C19.595238,34.0523817 20.3619047,33.285715 21.2380951,33.285715 L39.8571429,33.285715 C40.7333333,33.285715 41.5,34.0523817 41.5,34.9285722 C41.5,35.8047627 40.7333333,36.5714294 39.8571429,36.5714294 L39.8571429,36.5714294 Z" id="形状" fill="#DDDEDE" fill-rule="nonzero"></path>
                    </g>
                </g>
            </g>
        </g>
    </g>
</svg>